<svg aria-hidden="true" style="position:absolute;width:0;height:0;overflow:hidden" xmlns="http://www.w3.org/2000/svg"><defs><symbol id="icon-envelop" viewBox="0 0 32 32"><path d="M29 4H3C1.35 4 0 5.35 0 7v20c0 1.65 1.35 3 3 3h26c1.65 0 3-1.35 3-3V7c0-1.65-1.35-3-3-3zM12.461 17.199 4 23.789V8.113l8.461 9.086zM5.512 8h20.976L16 15.875 5.512 8zm7.278 9.553L16 21l3.21-3.447L25.79 26H6.211l6.58-8.447zm6.749-.354L28 8.113v15.676l-8.461-6.59z"/></symbol><symbol id="icon-man" viewBox="0 0 32 32"><path d="M18 3a3 3 0 1 1-6 0 3 3 0 0 1 6 0zM18 8h-6a2 2 0 0 0-2 2v10h2v12h2.5V20h1v12H18V20h2V10a2 2 0 0 0-2-2z"/></symbol><symbol id="icon-woman" viewBox="0 0 32 32"><path d="M18 3a3 3 0 1 1-6 0 3 3 0 0 1 6 0zM22.469 16 24 14.891 19.835 8.45A1 1 0 0 0 19 8h-8a1 1 0 0 0-.835.45L6 14.891 7.531 16l3.458-4.487 1.202 2.804L8 22h3.833l.667 10h2V22h1v10h2l.667-10H22l-4.191-7.683 1.202-2.804L22.469 16z"/></symbol><symbol id="icon-man-woman" viewBox="0 0 32 32"><path d="M8 3a3 3 0 1 1-6 0 3 3 0 0 1 6 0zM26 3a3 3 0 1 1-6 0 3 3 0 0 1 6 0zM8 8H2a2 2 0 0 0-2 2v10h2v12h2.5V20h1v12H8V20h2V10a2 2 0 0 0-2-2zM30.469 16 32 14.891 27.835 8.45A1 1 0 0 0 27 8h-8a1 1 0 0 0-.835.45L14 14.891 15.531 16l3.458-4.487 1.202 2.804L16 22h3.833l.667 10h2V22h1v10h2l.667-10H30l-4.191-7.683 1.202-2.804L30.469 16z"/></symbol><symbol id="icon-wink" viewBox="0 0 32 32"><path d="M16 32c8.837 0 16-7.163 16-16S24.837 0 16 0 0 7.163 0 16s7.163 16 16 16zm0-29c7.18 0 13 5.82 13 13s-5.82 13-13 13S3 23.18 3 16 8.82 3 16 3zm.961 19.22c4.383-.866 7.785-2.861 9.014-5.519C25.298 21.95 20.928 26 15.636 26c-3.726 0-6.996-2.009-8.84-5.03 2.2 1.721 6.079 2.056 10.165 1.249zM20 11c0-1.657.895-3 2-3s2 1.343 2 3-.895 3-2 3-2-1.343-2-3zm-9 .609c-1.306 0-2.417.489-2.829 1.172C8.06 12.598 8 11.776 8 11.57c0-.971 1.343-1.758 3-1.758s3 .787 3 1.758c0 .206-.061 1.028-.171 1.211-.412-.683-1.522-1.172-2.829-1.172z"/></symbol><symbol id="icon-enter" viewBox="0 0 32 32"><path d="M12 16H2v-4h10V8l6 6-6 6zM32 0v26l-12 6v-6H8v-8h2v6h10V6l8-4H10v8H8V0z"/></symbol><symbol id="icon-exit" viewBox="0 0 32 32"><path d="M24 20v-4H14v-4h10V8l6 6zm-2-2v8H12v6L0 26V0h22v10h-2V2H4l8 4v18h8v-6z"/></symbol><symbol id="icon-arrow-up2" viewBox="0 0 32 32"><path d="m27.414 12.586-10-10a2 2 0 0 0-2.828 0l-10 10a2 2 0 1 0 2.828 2.828L14 8.828V28a2 2 0 1 0 4 0V8.828l6.586 6.586c.39.39.902.586 1.414.586s1.024-.195 1.414-.586a2 2 0 0 0 0-2.828z"/></symbol><symbol id="icon-checkbox-checked" viewBox="0 0 32 32"><path d="M28 0H4C1.8 0 0 1.8 0 4v24c0 2.2 1.8 4 4 4h24c2.2 0 4-1.8 4-4V4c0-2.2-1.8-4-4-4zM14 24.828l-7.414-7.414 2.828-2.828L14 19.172l9.586-9.586 2.828 2.828L14 24.828z"/></symbol><symbol id="icon-checkbox-unchecked" viewBox="0 0 32 32"><path d="M28 0H4C1.8 0 0 1.8 0 4v24c0 2.2 1.8 4 4 4h24c2.2 0 4-1.8 4-4V4c0-2.2-1.8-4-4-4zm0 28H4V4h24v24z"/></symbol><symbol id="icon-filter" viewBox="0 0 32 32"><path d="M16 0C7.163 0 0 2.239 0 5v3l12 12v10c0 1.105 1.791 2 4 2s4-.895 4-2V20L32 8V5c0-2.761-7.163-5-16-5zM2.95 4.338c.748-.427 1.799-.832 3.04-1.171C8.738 2.415 12.293 2 16.001 2s7.262.414 10.011 1.167c1.241.34 2.292.745 3.04 1.171.494.281.76.519.884.662-.124.142-.391.38-.884.662-.748.427-1.8.832-3.04 1.171C23.264 7.585 19.709 8 16.001 8S8.739 7.586 5.99 6.833c-1.24-.34-2.292-.745-3.04-1.171-.494-.282-.76-.519-.884-.662.124-.142.391-.38.884-.662z"/></symbol><symbol id="icon-linkedin" viewBox="0 0 32 32"><path d="M29 0H3C1.35 0 0 1.35 0 3v26c0 1.65 1.35 3 3 3h26c1.65 0 3-1.35 3-3V3c0-1.65-1.35-3-3-3zM12 26H8V12h4v14zm-2-16c-1.106 0-2-.894-2-2s.894-2 2-2c1.106 0 2 .894 2 2s-.894 2-2 2zm16 16h-4v-8c0-1.106-.894-2-2-2s-2 .894-2 2v8h-4V12h4v2.481C18.825 13.35 20.087 12 21.5 12c2.488 0 4.5 2.238 4.5 5v9z"/></symbol><symbol id="icon-github" viewBox="0 0 32 32"><path d="M16 .395c-8.836 0-16 7.163-16 16 0 7.069 4.585 13.067 10.942 15.182.8.148 1.094-.347 1.094-.77 0-.381-.015-1.642-.022-2.979-4.452.968-5.391-1.888-5.391-1.888-.728-1.849-1.776-2.341-1.776-2.341-1.452-.993.11-.973.11-.973 1.606.113 2.452 1.649 2.452 1.649 1.427 2.446 3.743 1.739 4.656 1.33.143-1.034.558-1.74 1.016-2.14-3.554-.404-7.29-1.777-7.29-7.907 0-1.747.625-3.174 1.649-4.295-.166-.403-.714-2.03.155-4.234 0 0 1.344-.43 4.401 1.64a15.353 15.353 0 0 1 4.005-.539c1.359.006 2.729.184 4.008.539 3.054-2.07 4.395-1.64 4.395-1.64.871 2.204.323 3.831.157 4.234 1.026 1.12 1.647 2.548 1.647 4.295 0 6.145-3.743 7.498-7.306 7.895.574.497 1.085 1.47 1.085 2.963 0 2.141-.019 3.864-.019 4.391 0 .426.288.925 1.099.768C27.421 29.457 32 23.462 32 16.395c0-8.837-7.164-16-16-16z"/></symbol><symbol id="icon-menu" viewBox="0 0 32 32"><path d="M2 6h28v6H2zm0 8h28v6H2zm0 8h28v6H2z"/></symbol><symbol id="icon-cross" viewBox="0 0 32 32"><path d="M31.708 25.708 22 16l9.708-9.708a1 1 0 0 0 0-1.414L27.122.292a1 1 0 0 0-1.414-.001L16 9.999 6.292.291a.998.998 0 0 0-1.414.001L.292 4.878a1 1 0 0 0 0 1.414L10 16 .292 25.708a.999.999 0 0 0 0 1.414l4.586 4.586a1 1 0 0 0 1.414 0L16 22l9.708 9.708a1 1 0 0 0 1.414 0l4.586-4.586a.999.999 0 0 0 0-1.414z"/></symbol><symbol id="icon-baffled" viewBox="0 0 32 32"><path d="M16 32c8.837 0 16-7.163 16-16S24.837 0 16 0 0 7.163 0 16s7.163 16 16 16zm0-29c7.18 0 13 5.82 13 13s-5.82 13-13 13S3 23.18 3 16 8.82 3 16 3z"/><path d="M12 13a1 1 0 1 1-2 0 1 1 0 0 1 2 0z"/><path d="M11 10a3 3 0 1 1 0 6 3 3 0 0 1 0-6zm0-2c-2.757 0-5 2.243-5 5s2.243 5 5 5 5-2.243 5-5-2.243-5-5-5zM22 13a1 1 0 1 1-2 0 1 1 0 0 1 2 0z"/><path d="M21 10a3 3 0 1 1 0 6 3 3 0 0 1 0-6zm0-2c-2.757 0-5 2.243-5 5s2.243 5 5 5 5-2.243 5-5-2.243-5-5-5zM12 22h8v2h-8v-2z"/></symbol><symbol id="icon-arrow-right2" viewBox="0 0 32 32"><path d="m19.414 27.414 10-10a2 2 0 0 0 0-2.828l-10-10a2 2 0 1 0-2.828 2.828L23.172 14H4a2 2 0 1 0 0 4h19.172l-6.586 6.586c-.39.39-.586.902-.586 1.414s.195 1.024.586 1.414a2 2 0 0 0 2.828 0z"/></symbol><symbol id="icon-circle-right" viewBox="0 0 32 32"><path d="m11.086 22.086 2.829 2.829 8.914-8.914-8.914-8.914-2.828 2.828 6.086 6.086z"/></symbol><symbol id="icon-home" viewBox="0 0 32 32"><path d="M32 18.451 16 6.031 0 18.451v-5.064L16 .967l16 12.42zM28 18v12h-8v-8h-8v8H4V18l12-9z"/></symbol><symbol id="icon-pencil" viewBox="0 0 32 32"><path d="M27 0a5 5 0 0 1 4 8l-2 2-7-7 2-2c.836-.628 1.874-1 3-1zM2 23l-2 9 9-2 18.5-18.5-7-7L2 23zm20.362-11.638-14 14-1.724-1.724 14-14 1.724 1.724z"/></symbol><symbol id="icon-film" viewBox="0 0 32 32"><path d="M0 4v24h32V4H0zm6 22H2v-4h4v4zm0-8H2v-4h4v4zm0-8H2V6h4v4zm18 16H8V6h16v20zm6 0h-4v-4h4v4zm0-8h-4v-4h4v4zm0-8h-4V6h4v4zm-18 0v12l8-6z"/></symbol><symbol id="icon-book" viewBox="0 0 32 32"><path d="M28 4v26H7a3 3 0 1 1 0-6h19V0H6C3.8 0 2 1.8 2 4v24c0 2.2 1.8 4 4 4h24V4h-2z"/><path d="M7.002 26H7a1 1 0 0 0 0 2h18.999v-2H7.002z"/></symbol><symbol id="icon-folder-plus" viewBox="0 0 32 32"><path d="m18 8-4-4H0v26h32V8H18zm4 14h-4v4h-4v-4h-4v-4h4v-4h4v4h4v4z"/></symbol><symbol id="icon-folder-minus" viewBox="0 0 32 32"><path d="m18 8-4-4H0v26h32V8H18zm4 14H10v-4h12v4z"/></symbol><symbol id="icon-earth" viewBox="0 0 32 32"><path d="M16 0C7.163 0 0 7.163 0 16s7.163 16 16 16 16-7.163 16-16S24.837 0 16 0zm0 30c-1.967 0-3.84-.407-5.538-1.139l7.286-8.197a.998.998 0 0 0 .253-.664v-3a1 1 0 0 0-1-1c-3.531 0-7.256-3.671-7.293-3.707A1 1 0 0 0 9.001 12h-4a1 1 0 0 0-1 1v6c0 .379.214.725.553.894l3.447 1.724v5.871c-3.627-2.53-6-6.732-6-11.489 0-2.147.484-4.181 1.348-6h3.652c.265 0 .52-.105.707-.293l4-4A1 1 0 0 0 12.001 5V2.581a14.013 14.013 0 0 1 4-.581c2.2 0 4.281.508 6.134 1.412A5.961 5.961 0 0 0 20.002 8c0 1.603.624 3.109 1.757 4.243a5.985 5.985 0 0 0 4.536 1.751c.432 1.619 1.211 5.833-.263 11.635a.936.936 0 0 0-.026.163A13.956 13.956 0 0 1 16.002 30z"/></symbol><symbol id="icon-star-empty" viewBox="0 0 32 32"><path d="m32 12.408-11.056-1.607L16 .783l-4.944 10.018L0 12.408l8 7.798-1.889 11.011L16 26.018l9.889 5.199L24 20.206l8-7.798zM16 23.547l-6.983 3.671 1.334-7.776-5.65-5.507 7.808-1.134 3.492-7.075 3.492 7.075 7.807 1.134-5.65 5.507 1.334 7.776-6.983-3.671z"/></symbol><symbol id="icon-star-full" viewBox="0 0 32 32"><path d="m32 12.408-11.056-1.607L16 .783l-4.944 10.018L0 12.408l8 7.798-1.889 11.011L16 26.018l9.889 5.199L24 20.206l8-7.798z"/></symbol><symbol id="icon-arrow-right2" viewBox="0 0 32 32"><path d="m19.414 27.414 10-10a2 2 0 0 0 0-2.828l-10-10a2 2 0 1 0-2.828 2.828L23.172 14H4a2 2 0 1 0 0 4h19.172l-6.586 6.586c-.39.39-.586.902-.586 1.414s.195 1.024.586 1.414a2 2 0 0 0 2.828 0z"/></symbol><symbol id="icon-circle-right" viewBox="0 0 32 32"><path d="M16 0C7.163 0 0 7.163 0 16s7.163 16 16 16 16-7.163 16-16S24.837 0 16 0zm0 29C8.82 29 3 23.18 3 16S8.82 3 16 3s13 5.82 13 13-5.82 13-13 13z"/><path d="m11.086 22.086 2.829 2.829 8.914-8.914-8.914-8.914-2.828 2.828 6.086 6.086z"/></symbol><symbol id="icon-basecamp" viewBox="0 0 32 32"><path d="M16 3.331c-5.838 0-10.338 4.888-12.887 9.675C1.675 15.7.669 18.65.207 21.669c-.05.344-.1.688-.138 1.038a17.82 17.82 0 0 0-.05.563c-.019.238-.006.313.119.512a9.495 9.495 0 0 0 1.319 1.675c1.025 1.05 2.269 1.856 3.588 2.481 3.006 1.419 6.4 1.931 9.7 2.044 3.406.113 6.906-.169 10.162-1.231 2.781-.906 5.462-2.488 7.006-5.044.169-.275.05-.681.019-1a16.972 16.972 0 0 0-.15-1.131 23.746 23.746 0 0 0-.444-2.188 27.695 27.695 0 0 0-1.456-4.319c-2.175-5.05-6.2-10.438-11.925-11.55-.644-.125-1.3-.188-1.956-.188zm.2 24.488c-3.569 0-7.456-.319-10.669-2.038-1.25-.669-2.525-1.637-3.125-2.969-.175-.387-.112-.538-.031-.994.056-.294.081-.581.212-.856.181-.381.369-.756.563-1.131.656-1.269 1.363-2.525 2.181-3.706.406-.581.838-1.156 1.337-1.656.35-.35.775-.725 1.269-.844 1.513-.363 2.669 1.387 3.587 2.269.444.425 1.037.906 1.7.825.456-.056.863-.413 1.188-.706 1.106-.994 1.994-2.225 2.913-3.381.456-.569.906-1.144 1.4-1.688.331-.369.694-.787 1.137-1.025.794-.431 1.806.456 2.356.912.938.781 1.769 1.694 2.563 2.619.756.881 1.488 1.775 2.131 2.744.994 1.5 1.856 3.1 2.644 4.719.169.35.225.587.288.975.038.212.119.456.087.675-.044.306-.256.637-.413.887-.375.594-.881 1.106-1.438 1.538-2.331 1.806-5.488 2.406-8.356 2.675-1.175.113-2.35.156-3.525.156z"/></symbol></defs></svg>
